<svg xmlns="http://www.w3.org/2000/svg" width="32" height="32" viewBox="0 0 32 32">
  <rect width="32" height="32" rx="8" fill="#0b0a12" />
  <g transform="translate(4,5.44) scale(0.0096) translate(-1400,-750)">
    <g transform="matrix(1.3333333,0,0,-1.3333333,0,4000)">
      <g transform="translate(2705.7229,2120.5381)">
        <path fill="#6670ff" d="m 0,0 c -94.788,39.249 -202.833,17.744 -275.368,-54.781 l -352.994,-352.994 135.409,-135.398 23.204,23.205 c 89.602,89.608 242.814,26.148 242.814,-100.573 v 0 c 0,-126.719 -153.21,-190.18 -242.813,-100.575 l -666.33,666.346 c -72.535,72.525 -180.58,94.03 -275.368,54.781 -94.747,-39.249 -155.979,-130.879 -155.979,-233.438 v -774.191 c 0,-102.559 61.232,-194.189 155.979,-233.439 94.747,-39.27 202.854,-17.744 275.368,54.791 l 352.984,352.973 -135.399,135.409 -23.168,-23.168 c -89.564,-89.564 -242.704,-26.131 -242.704,100.532 v 0 c 0,126.662 153.139,190.095 242.703,100.533 l 666.294,-666.279 c 72.514,-72.535 180.621,-94.061 275.368,-54.791 94.747,39.25 155.979,130.88 155.979,233.439 v 774.191 C 155.979,-130.879 94.747,-39.249 0,0" />
      </g>
    </g>
  </g>
</svg>
